<svg xmlns="http://www.w3.org/2000/svg" width="1360" height="900" viewBox="0 0 1360 900">
  <defs>
    <style>
      .box { fill:#f8fafc; stroke:#334155; stroke-width:2; rx:10; ry:10; }
      .title { font: 700 24px Arial, sans-serif; fill:#0f172a; }
      .txt { font: 14px Arial, sans-serif; fill:#0f172a; }
      .small { font: 12px Arial, sans-serif; fill:#334155; }
      .session { fill:#eef7ff; stroke:#2563eb; stroke-width:2; rx:12; ry:12; }
      .agent { fill:#f8fafc; stroke:#64748b; stroke-width:2; rx:12; ry:12; }
      .tx { fill:#fff1f2; stroke:#b91c1c; stroke-width:2; rx:10; ry:10; }
      .jan { fill:#ecfeff; stroke:#0e7490; stroke-width:2; rx:10; ry:10; }
      .arrow { stroke:#475569; stroke-width:2; marker-end:url(#m); fill:none; }
    </style>
    <marker id="m" markerWidth="10" markerHeight="10" refX="8" refY="3" orient="auto">
      <path d="M0,0 L0,6 L9,3 z" fill="#475569" />
    </marker>
  </defs>

  <text x="30" y="42" class="title">Zoro Architecture — Upgraded (Antfarm + Crawlee + Memory Loop + Chain Skills)</text>

  <rect x="60" y="90" width="180" height="60" class="box"/>
  <text x="112" y="126" class="txt">User</text>

  <rect x="280" y="80" width="250" height="80" class="box"/>
  <text x="370" y="112" class="txt">main agent</text>
  <text x="306" y="136" class="small">orchestrator + policy + synthesis</text>

  <rect x="570" y="80" width="220" height="80" class="box"/>
  <text x="620" y="112" class="txt">outline planner</text>
  <text x="595" y="136" class="small">objective/plan/risks/output</text>

  <rect x="540" y="190" width="760" height="250" class="session"/>
  <text x="560" y="218" class="txt">Session-Scoped Sandboxes</text>

  <rect x="620" y="260" width="240" height="90" class="box"/>
  <text x="700" y="292" class="txt">research</text>
  <text x="640" y="315" class="small">Crawlee-lite + InsightForge-lite</text>

  <rect x="910" y="260" width="240" height="90" class="box"/>
  <text x="996" y="292" class="txt">coder</text>
  <text x="940" y="315" class="small">ReACT caps + bounded retries</text>

  <rect x="540" y="470" width="760" height="260" class="agent"/>
  <text x="560" y="498" class="txt">Persistent Specialist Domains</text>

  <rect x="700" y="550" width="240" height="100" class="tx"/>
  <text x="795" y="584" class="txt">tx</text>
  <text x="730" y="607" class="small">risk tiers + chain skill packs</text>

  <rect x="980" y="550" width="260" height="100" class="jan"/>
  <text x="1070" y="584" class="txt">janitor</text>
  <text x="1005" y="607" class="small">host-mode cleanup + watchdog</text>

  <rect x="60" y="220" width="220" height="90" class="box"/>
  <text x="85" y="252" class="txt">Secrets Store</text>
  <text x="82" y="276" class="small">~/.openclaw/secrets (600)</text>

  <rect x="60" y="330" width="220" height="130" class="box"/>
  <text x="82" y="362" class="txt">Observer/Reflector</text>
  <text x="78" y="386" class="small">daily summary</text>
  <text x="78" y="408" class="small">weekly distillation</text>
  <text x="78" y="430" class="small">memory + principles updates</text>

  <rect x="60" y="490" width="220" height="150" class="box"/>
  <text x="100" y="522" class="txt">Ops</text>
  <text x="78" y="546" class="small">task state machine</text>
  <text x="78" y="568" class="small">JSONL audit logs</text>
  <text x="78" y="590" class="small">docker prune schedule</text>
  <text x="78" y="612" class="small">janitor schedule</text>

  <rect x="1180" y="260" width="140" height="60" class="box"/>
  <text x="1202" y="296" class="small">External APIs</text>
  <rect x="1180" y="335" width="140" height="60" class="box"/>
  <text x="1215" y="371" class="small">Repos</text>
  <rect x="1180" y="550" width="140" height="60" class="box"/>
  <text x="1195" y="586" class="small">Payment rails</text>

  <path d="M240 120 L280 120" class="arrow"/>
  <path d="M530 120 L570 120" class="arrow"/>
  <path d="M790 120 L740 260" class="arrow"/>
  <path d="M790 120 L1030 260" class="arrow"/>
  <path d="M790 120 L820 550" class="arrow"/>
  <path d="M790 120 L1110 550" class="arrow"/>

  <path d="M280 255 L620 305" class="arrow"/>
  <path d="M280 265 L910 305" class="arrow"/>
  <path d="M280 275 L700 590" class="arrow"/>

  <path d="M860 305 L1180 290" class="arrow"/>
  <path d="M1150 305 L1180 365" class="arrow"/>
  <path d="M940 595 L1180 580" class="arrow"/>

  <text x="30" y="860" class="small">Live model: sandbox-first specialists, host janitor, bounded reasoning loops, antfarm-style orchestration controls.</text>
</svg>
